<?xml version="1.0" encoding="UTF-8"?><svg id="a" xmlns="http://www.w3.org/2000/svg" width="592.35" height="136.06" viewBox="0 0 592.35 136.06"><g id="b"><g><path d="M140.11,70.16c-3.16,3.3-6.99,4.95-11.49,4.95s-8.24-1.65-11.22-4.95c-2.98-3.3-4.47-8.03-4.47-14.17s1.51-10.98,4.54-14.24c3.03-3.25,6.84-4.88,11.42-4.88s8.28,1.65,11.35,4.95c3.08,3.3,4.61,8.03,4.61,14.17s-1.57,10.86-4.74,14.17m9.14-48.84c-6.05-3.21-12.83-4.81-20.36-4.81s-14.31,1.6-20.36,4.81c-6.06,3.21-10.82,7.82-14.31,13.83-3.48,6.01-5.22,12.95-5.22,20.84s1.72,14.95,5.16,20.91c3.45,5.96,8.16,10.55,14.18,13.76,6,3.21,12.77,4.82,20.29,4.82s14.33-1.6,20.43-4.82c6.09-3.21,10.91-7.81,14.45-13.83,3.52-6,5.29-12.95,5.29-20.84s-1.75-14.83-5.22-20.84c-3.49-6.01-8.25-10.61-14.31-13.83" style="fill:#37afff;"/><path d="M277.09,16.51c-5.51,0-10.59,1.35-15.26,4.06-4.66,2.71-8.35,6.21-11.06,10.5-2.61-4.66-6.22-8.26-10.85-10.78-4.62-2.52-9.87-3.78-15.75-3.78-4.95,0-9.38,.96-13.3,2.87-3.92,1.92-7.09,4.5-9.52,7.77v-10.64h-23.94V95.46h23.94V53.04c0-5.04,1.33-8.93,4-11.69,2.66-2.75,6.31-4.13,10.99-4.13s8.33,1.38,10.99,4.13,3.99,6.65,3.99,11.69v42.42h23.8V53.04c0-5.04,1.33-8.93,3.99-11.69s6.32-4.13,10.99-4.13,8.33,1.38,10.99,4.13,3.99,6.65,3.99,11.69v42.42h23.8V49.82c0-10.45-2.86-18.62-8.6-24.5-5.74-5.88-13.47-8.82-23.17-8.82" style="fill:#37afff;"/><path d="M367.9,70.16c-3.16,3.3-6.99,4.95-11.49,4.95s-8.23-1.65-11.22-4.95c-2.97-3.3-4.47-8.03-4.47-14.17s1.52-10.98,4.55-14.24c3.02-3.25,6.82-4.88,11.42-4.88s8.28,1.65,11.35,4.95c3.06,3.3,4.61,8.03,4.61,14.17s-1.59,10.86-4.75,14.17m9.15-48.84c-6.06-3.21-12.85-4.81-20.36-4.81s-14.31,1.6-20.36,4.81c-6.06,3.21-10.83,7.82-14.31,13.83-3.49,6.01-5.24,12.95-5.24,20.84s1.72,14.95,5.17,20.91c3.44,5.96,8.16,10.55,14.17,13.76,6,3.21,12.77,4.82,20.29,4.82s14.33-1.6,20.43-4.82c6.1-3.21,10.92-7.81,14.44-13.83,3.53-6,5.3-12.95,5.3-20.84s-1.75-14.83-5.24-20.84c-3.48-6.01-8.25-10.61-14.3-13.83" style="fill:#37afff;"/><path d="M435.25,74.01c-1.11-1.01-1.65-2.66-1.65-4.96V36.04h15.4V16.51h-15.4V0h-23.52V16.51h-9.35v19.53h9.35v32.74c0,9.45,2.39,16.26,7.15,20.43,4.77,4.18,11.42,6.26,19.95,6.26h11.97v-19.95h-8.4c-2.57,0-4.39-.5-5.49-1.51" style="fill:#37afff;"/><path d="M505.88,70.16c-3.16,3.3-6.99,4.95-11.49,4.95s-8.23-1.65-11.22-4.95c-2.98-3.3-4.47-8.03-4.47-14.17s1.51-10.98,4.54-14.24c3.03-3.25,6.84-4.88,11.43-4.88s8.26,1.65,11.34,4.95,4.62,8.03,4.62,14.17-1.59,10.86-4.75,14.17m9.14-48.84c-6.05-3.21-12.83-4.81-20.35-4.81s-14.31,1.6-20.37,4.81c-6.05,3.21-10.82,7.82-14.3,13.83-3.49,6.01-5.24,12.95-5.24,20.84s1.72,14.95,5.16,20.91c3.45,5.96,8.16,10.55,14.18,13.76,6,3.21,12.77,4.82,20.29,4.82s14.33-1.6,20.43-4.82c6.1-3.21,10.91-7.81,14.45-13.83,3.52-6,5.29-12.95,5.29-20.84s-1.73-14.83-5.22-20.84-8.25-10.61-14.31-13.83" style="fill:#37afff;"/><path d="M592.35,16.51c-5.13,0-9.8,1.24-14,3.71-4.2,2.47-7.7,5.86-10.49,10.15v-13.86h-23.94V95.47h23.94V59.21c0-6.44,1.49-10.94,4.48-13.51,2.98-2.57,7.46-3.85,13.44-3.85h6.58V16.51h-.01Z" style="fill:#37afff;"/><path d="M54.57,95.47v4.3c0,4.29-1.39,7.76-4.24,10.61s-6.26,4.24-10.44,4.24-7.62-1.38-10.46-4.18c-2.84-2.88-4.22-6.38-4.22-10.68v-4.3H2.73v4.3c0,10.26,3.7,18.98,11.01,25.93,7.25,6.88,16.05,10.37,26.15,10.37s18.88-3.49,26.09-10.36c7.34-6.95,11.07-15.67,11.07-25.94v-4.3h-22.48Z" style="fill:#37afff;"/><path d="M55.85,55.99c0,6.14-1.57,10.86-4.74,14.17-3.16,3.3-6.99,4.95-11.49,4.95s-8.23-1.65-11.22-4.95c-2.98-3.3-4.47-8.03-4.47-14.17s1.51-10.98,4.54-14.24c3.03-3.25,6.84-4.88,11.42-4.88s8.28,1.65,11.35,4.95c3.08,3.3,4.61,8.03,4.61,14.17m30.09-35.12v-4.3h-22.48v4.3c0,.78-.24,1.43-.39,2.12-.91-.59-1.84-1.16-2.81-1.67-6.05-3.21-12.83-4.81-20.36-4.81s-14.3,1.6-20.36,4.81c-6.05,3.21-10.82,7.82-14.31,13.83C1.74,41.15,0,48.09,0,55.98s1.72,14.95,5.16,20.91c3.45,5.96,8.16,10.55,14.18,13.76,6,3.21,12.77,4.82,20.29,4.82s14.32-1.6,20.43-4.82c6.1-3.21,10.91-7.81,14.45-13.83,3.52-6,5.29-12.95,5.29-20.84,0-4.59-.61-8.85-1.79-12.79,5.17-6.29,7.93-13.74,7.93-22.33" style="fill:#37afff;"/></g></g></svg>