<?xml version="1.0" encoding="UTF-8"?><svg xmlns="http://www.w3.org/2000/svg" viewBox="0 0 372.35 518.02"><defs><style>.d{fill:#33d1ff;}</style></defs><g id="a"/><g id="b"><g id="c"><g><path class="d" d="M347.85,499.64h5.27v-13l4.87,13h4.25l4.84-12.97v12.97h5.27v-21.63h-6.19l-6.01,14.97-6.07-14.97h-6.22v21.63Zm-19.38-17.41h5.73v17.41h5.27v-17.41h5.73v-4.22h-16.73v4.22Z"/><path class="d" d="M236.42,342.13v18.62c0,18.59-6,33.63-18.34,45.99-12.35,12.36-27.13,18.37-45.23,18.37s-33.03-5.99-45.32-18.09c-12.3-12.49-18.3-27.63-18.3-46.27v-18.62H11.86v18.62c0,44.45,16.05,82.25,47.72,112.34,31.42,29.81,69.52,44.93,113.28,44.93,43.76,0,81.82-15.13,113.04-44.89,31.81-30.1,47.96-67.9,47.96-112.37v-18.62h-97.43Z"/><path class="d" d="M221.45,232.46c-13.71,14.3-30.3,21.45-49.77,21.45-19.47,0-35.66-7.15-48.59-21.45-12.93-14.31-19.37-34.77-19.37-61.39,0-27.02,6.54-47.59,19.66-61.7,13.13-14.1,29.61-21.15,49.47-21.15,19.47,0,35.86,7.14,49.18,21.45,13.32,14.3,19.95,34.77,19.95,61.4,0,26.62-6.83,47.08-20.53,61.39M261.06,20.85C234.86,6.94,205.44,0,172.85,0c-32.59,0-61.96,6.94-88.21,20.85-26.2,13.92-46.88,33.88-62.01,59.91C7.56,106.79,0,136.89,0,171.07c0,34.56,7.47,64.77,22.35,90.59,14.93,25.84,35.37,45.7,61.42,59.6,26,13.92,55.32,20.87,87.91,20.87,32.59,0,62.06-6.95,88.5-20.87,26.44-13.9,47.27-33.86,62.59-59.9,15.27-26.02,22.93-56.11,22.93-90.29,0-34.18-7.56-64.28-22.64-90.31-15.12-26.03-35.76-45.99-62.01-59.91"/><path class="d" d="M372.34,.27h-97.43V18.89c0,3.88-1.42,6.99-1.95,10.57,20.25,13.27,37.57,29.68,50.1,51.3,6.34,10.92,11.03,22.72,14.74,35.08,22.49-27.32,34.54-59.63,34.54-96.95V.27Z"/></g></g></g></svg>